<svg xmlns="http://www.w3.org/2000/svg" xmlns:xlink="http://www.w3.org/1999/xlink" x="0px" y="0px" viewBox="0 0 500 500" style="enable-background:new 0 0 500 500;" xml:space="preserve"><style type="text/css">	.st0{fill:#A9C433;}	.st1{opacity:0.7;fill:#FFFFFF;}			.st2{fill:none;stroke:#263238;stroke-width:1.1031;stroke-linecap:round;stroke-linejoin:round;stroke-miterlimit:10;stroke-dasharray:4.4124;}	.st3{opacity:0.5;fill:#FFFFFF;}	.st4{fill:#FFFFFF;stroke:#263238;stroke-width:1.1031;stroke-linecap:round;stroke-linejoin:round;stroke-miterlimit:10;}	.st5{fill:#263238;}	.st6{opacity:0.2;fill:#FFFFFF;}	.st7{fill:#A9C433;stroke:#263238;stroke-width:1.1031;stroke-miterlimit:10;}	.st8{fill:none;stroke:#263238;stroke-width:1.1031;stroke-miterlimit:10;}	.st9{opacity:0.2;}	.st10{fill:#FFFFFF;stroke:#222221;stroke-width:1.1031;stroke-miterlimit:10;}	.st11{fill:#FFFFFF;}	.st12{fill:none;stroke:#263238;stroke-width:1.1031;stroke-linecap:round;stroke-linejoin:round;stroke-miterlimit:10;}	.st13{fill:none;stroke:#263238;stroke-width:2.2062;stroke-linecap:round;stroke-linejoin:round;stroke-miterlimit:10;}			.st14{opacity:0.2;fill:none;stroke:#FFFFFF;stroke-width:1.1031;stroke-linecap:round;stroke-linejoin:round;stroke-miterlimit:10;}	.st15{fill:none;stroke:#FFFFFF;stroke-width:1.1031;stroke-linecap:round;stroke-linejoin:round;stroke-miterlimit:10;}</style><g id="Background_Simple">	<path class="st0" d="M456.6,209.1c-48.7-83.5-181-53.7-208-94.3c-13.8-20.8-29.3-44.9-51.7-57.4c-21.4-11.9-46.2-16.2-67.8-14.6  c-77.2,5.7-109.9,74.7-95.1,150.6C53.7,294.5,143.4,397.9,250,398.6C305.7,399,359,379,400.7,350.9c0.3-0.2,0.6-0.4,0.9-0.6  C443.3,321.9,493.8,272.8,456.6,209.1z"></path>	<path class="st1" d="M456.6,209.1c-48.7-83.5-181-53.7-208-94.3c-13.8-20.8-29.3-44.9-51.7-57.4c-21.4-11.9-46.2-16.2-67.8-14.6  c-77.2,5.7-109.9,74.7-95.1,150.6C53.7,294.5,143.4,397.9,250,398.6C305.7,399,359,379,400.7,350.9c0.3-0.2,0.6-0.4,0.9-0.6  C443.3,321.9,493.8,272.8,456.6,209.1z"></path></g><g id="Lines">	<path class="st2" d="M78.2,215.2h-5.4c-12.1,0-21.9,9.8-21.9,21.9v120.3c0,12.1,9.8,21.9,21.9,21.9h74.4c12.1,0,21.9-9.8,21.9-21.9  l0,0"></path>	<path class="st2" d="M163,101.6V77.9c0-7.4,6-13.4,13.4-13.4h96.7c7.4,0,13.4,6,13.4,13.4l0,0"></path></g><g id="Shadow">	<ellipse class="st0" cx="250" cy="445.4" rx="191.5" ry="26.8"></ellipse>	<ellipse class="st3" cx="250" cy="445.4" rx="191.5" ry="26.8"></ellipse></g><g id="Window">	<path class="st4" d="M430.5,133.5v180.1c0,12.3-9.9,22.2-22.2,22.2H91.7c-12.3,0-22.2-9.9-22.2-22.2V133.5c0-0.5,0-1,0.1-1.6  c0.8-11.5,10.4-20.6,22.1-20.6h316.7c11.7,0,21.3,9.1,22.1,20.6C430.5,132.5,430.5,133,430.5,133.5z"></path>	<path class="st5" d="M400.1,327.4h-299c-11.5,0-20.8-9.3-20.8-20.8V140.3h340.6v166.3C420.9,318.1,411.6,327.4,400.1,327.4z"></path>	<path class="st6" d="M420.9,140.3v166.3c0,11.5-9.2,20.8-20.6,20.8H100.8c-11.4,0-20.6-9.3-20.6-20.8V140.3H420.9z"></path>	<path class="st7" d="M430.5,132H69.5c0.8-11.5,10.4-20.6,22.1-20.6h316.7C420.1,111.3,429.7,120.4,430.5,132z"></path>	<path class="st5" d="M113.9,121.6c0,2.2-1.8,3.9-3.9,3.9c-2.2,0-3.9-1.8-3.9-3.9c0-2.2,1.8-3.9,3.9-3.9  C112.1,117.7,113.9,119.5,113.9,121.6z"></path>	<path class="st5" d="M130.5,121.6c0,2.2-1.8,3.9-3.9,3.9c-2.2,0-3.9-1.8-3.9-3.9c0-2.2,1.8-3.9,3.9-3.9  C128.7,117.7,130.5,119.5,130.5,121.6z"></path>	<circle class="st5" cx="143.2" cy="121.6" r="3.9"></circle>	<path class="st8" d="M420.9,140.3v166.3c0,11.5-9.3,20.8-20.8,20.8h-299c-10.1,0-18.5-7.2-20.4-16.8l0,0v0c-0.3-1.3-0.4-2.6-0.4-4  V140.3H420.9z"></path>	<path class="st5" d="M420.5,166c-1.5-0.8-3-1.5-4.6-1.9l-1.9-8.4h-7.9l-1.9,8.4c-1.6,0.4-3.2,1.1-4.6,1.9l-7.2-4.6l-5.6,5.6  l4.5,7.2c-0.8,1.5-1.5,3-1.9,4.6l-8.4,1.9v7.9l8.4,1.9c0.4,1.6,1.1,3.2,1.9,4.7l-4.6,7.2l5.6,5.6l7.2-4.6c1.5,0.8,3,1.5,4.6,1.9  l1.9,8.3h7.9l1.9-8.3c1.6-0.5,3.2-1.1,4.6-1.9l0.4,0.2v-37.8L420.5,166z M410.1,195c-5.7,0-10.3-4.6-10.3-10.3  c0-5.7,4.6-10.3,10.3-10.3c5.7,0,10.3,4.6,10.3,10.3C420.4,190.4,415.8,195,410.1,195z"></path>	<path class="st5" d="M277.5,174.1v-16.7l-17.6-3.9c-1-3.4-2.3-6.7-4-9.8l2.1-3.4h-83.1l2.1,3.3c-1.7,3.1-3.1,6.4-4,9.8l-17.6,3.9  V174l17.6,3.9c0.9,3.4,2.3,6.7,4,9.8l-9.7,15.2l11.8,11.8l15.2-9.7c3.1,1.7,6.4,3.1,9.8,4l3.9,17.6h16.7l3.9-17.6  c3.4-1,6.7-2.3,9.7-4l15.2,9.7l11.8-11.8l-9.6-15.2c1.7-3.1,3.1-6.4,4-9.8L277.5,174.1z M216.4,187.3c-11.9,0-21.6-9.7-21.6-21.6  s9.7-21.6,21.6-21.6c11.9,0,21.6,9.7,21.6,21.6S228.4,187.3,216.4,187.3z"></path>	<path class="st5" d="M166.4,289l0.7-13.3l-13.8-3.9c-0.6-2.7-1.6-5.4-2.8-7.9l8.3-11.7l-8.9-9.9l-12.5,7c-2.4-1.5-4.9-2.7-7.6-3.6  l-2.4-14.1l-13.3-0.7l-3.8,13.8c-2.7,0.6-5.4,1.6-7.9,2.8l-11.7-8.3l-9.9,8.9l7.1,12.5c-1.5,2.4-2.7,4.9-3.6,7.6l-4,0.7v18l2.9,0.8  c0.6,2.7,1.6,5.4,2.8,7.9l-5.7,8l0.4,6.9v0l0,0l5.9,6.6l12.5-7c2.4,1.5,4.9,2.8,7.6,3.7l2.3,13.6v0l0.1,0.6l13.3,0.7l0.4-1.3v0  l3.5-12.5c2.8-0.6,5.4-1.6,7.9-2.8l11.6,8.3l9.9-8.9l-7-12.5c1.5-2.4,2.7-4.9,3.6-7.6L166.4,289z M131.1,268.3  c-6.4-7.1-17.2-7.6-24.3-1.3c-7.1,6.4-7.6,17.2-1.3,24.3c6.4,7.1,17.2,7.6,24.3,1.3C136.9,286.2,137.5,275.3,131.1,268.3z"></path>	<path class="st5" d="M272.6,269.2c0.5-2.1,0.8-4.2,0.8-6.3l9.5-5l-2.6-9.7l-10.8,0.5c-1.1-1.8-2.4-3.5-3.9-5l3.2-10.3l-8.7-5  l-7.3,7.9c-2-0.5-4.2-0.8-6.3-0.8l-5-9.6l-9.7,2.6l0.5,10.8c-1.8,1.1-3.5,2.4-5,3.9l-10.3-3.2l-5,8.7l8,7.3  c-0.5,2.1-0.8,4.2-0.8,6.3l-9.6,5l2.6,9.7l10.8-0.5c1.1,1.8,2.4,3.5,3.9,5l-3.2,10.3l8.7,5l7.2-7.9c2.1,0.5,4.2,0.8,6.3,0.8l5,9.6  l9.7-2.6l-0.4-9.2l-0.1-1.6c1.8-1.1,3.5-2.4,5.1-3.9l10.3,3.2l4.3-7.4l0.7-1.3L272.6,269.2z M249.7,275.1c-6.9,1.9-14-2.2-15.9-9.1  c-1.9-6.9,2.2-14,9.1-15.9c6.9-1.9,14,2.2,15.9,9.1C260.7,266.1,256.6,273.2,249.7,275.1z"></path>	<path class="st5" d="M383.3,286.2l2.2-13.3l-13.5-5.4c-0.3-2.8-1-5.6-1.9-8.3l9.7-10.8l-7.8-11l-13.4,5.7c-2.2-1.8-4.6-3.3-7.2-4.5  l-0.8-14.5l-13.3-2.2l-5.4,13.4c-2.8,0.3-5.6,1-8.3,1.9l-10.8-9.7l-11,7.8l5.7,13.3c-1.6,2-2.9,4.1-4,6.3c-0.2,0.3-0.3,0.6-0.5,0.9  l-14.5,0.8l-2.2,13.3l2.2,0.9l11.3,4.5c0.3,2.8,0.9,5.6,1.9,8.3l-9.7,10.8l7.8,11l13.4-5.7c2.2,1.8,4.6,3.3,7.2,4.5l0.8,14.4  l13.3,2.2l5.4-13.3c2.8-0.3,5.6-1,8.3-1.9l10.8,9.7l11-7.9l-5.7-13.4c1.8-2.2,3.3-4.7,4.6-7.2L383.3,286.2z M346,285.6  c-7.8,5.6-18.7,3.8-24.3-4c-5.6-7.8-3.8-18.7,4-24.3c7.8-5.6,18.7-3.8,24.3,4C355.6,269.2,353.8,280,346,285.6z"></path></g><g id="Graphics">	<path class="st7" d="M203.1,358.8H98.5c-7.2,0-13.1-5.9-13.1-13.1V200.9c0-7.2,5.9-13.1,13.1-13.1h104.6c7.2,0,13.1,5.9,13.1,13.1  v144.8C216.2,352.9,210.3,358.8,203.1,358.8z"></path>	<path class="st9" d="M203.1,358.8H98.5c-7.2,0-13.1-5.9-13.1-13.1V200.9c0-7.2,5.9-13.1,13.1-13.1h104.6c7.2,0,13.1,5.9,13.1,13.1  v144.8C216.2,352.9,210.3,358.8,203.1,358.8z"></path>	<path class="st4" d="M228.4,213.8v144.8c0,7.2-5.9,13.1-13.1,13.1H110.7c-7.2,0-13.1-5.9-13.1-13.1V213.8c0-7.2,5.9-13.1,13.1-13.1  h104.6C222.5,200.7,228.4,206.6,228.4,213.8z"></path>	<path class="st7" d="M228.4,213.8v7.8H97.6v-7.8c0-7.2,5.9-13.1,13.1-13.1h104.6C222.5,200.7,228.4,206.6,228.4,213.8z"></path>	<rect x="109.9" y="230.5" class="st0" width="32.2" height="5.4"></rect>	<rect x="109.9" y="278.9" class="st0" width="32.2" height="5.4"></rect>	<rect x="109.9" y="322.8" class="st0" width="32.2" height="5.4"></rect>	<g>		<rect x="109.9" y="243.9" class="st5" width="91.4" height="4"></rect>		<rect x="109.9" y="251.5" class="st5" width="74.9" height="3.9"></rect>		<rect x="109.9" y="258.9" class="st5" width="84.7" height="3.9"></rect>		<rect x="109.9" y="266.4" class="st5" width="84.7" height="3.9"></rect>	</g>	<g>		<rect x="109.9" y="287.8" class="st5" width="91.4" height="4"></rect>		<rect x="109.9" y="295.4" class="st5" width="74.9" height="3.9"></rect>		<rect x="109.9" y="302.8" class="st5" width="84.7" height="3.9"></rect>	</g>	<g>		<rect x="109.9" y="336" class="st5" width="91.4" height="4"></rect>		<rect x="109.9" y="343.5" class="st5" width="74.9" height="3.9"></rect>		<rect x="109.9" y="351" class="st5" width="84.7" height="3.9"></rect>	</g>	<path class="st10" d="M375.8,100.3v58.5c0,8.6-7,15.6-15.6,15.6H225.3c-8.6,0-15.6-7-15.6-15.6v-58.5c0-8.6,7-15.6,15.6-15.6h134.8  C368.8,84.7,375.8,91.7,375.8,100.3z"></path>	<path class="st7" d="M375.8,100.3v1.3H209.7v-1.3c0-8.6,7-15.6,15.6-15.6h134.8C368.8,84.7,375.8,91.7,375.8,100.3z"></path>	<path class="st5" d="M234.1,95.9c-0.9,0.9-2.5,0.9-3.4,0c-0.9-0.9-0.9-2.5,0-3.4c0.9-0.9,2.5-0.9,3.4,0C235,93.5,235,95,234.1,95.9  z"></path>	<path class="st5" d="M245.2,95.9c-0.9,0.9-2.5,0.9-3.4,0c-0.9-0.9-0.9-2.5,0-3.4c0.9-0.9,2.5-0.9,3.4,0  C246.2,93.5,246.2,95,245.2,95.9z"></path>	<path class="st5" d="M256.3,95.9c-0.9,0.9-2.5,0.9-3.4,0c-0.9-0.9-0.9-2.5,0-3.4c0.9-0.9,2.5-0.9,3.4,0  C257.3,93.5,257.3,95,256.3,95.9z"></path>	<rect x="220.3" y="112.4" class="st2" width="54.3" height="46.9"></rect>	<rect x="283" y="112.4" class="st5" width="62.5" height="3.3"></rect>	<rect x="283" y="119.2" class="st5" width="47.9" height="3.3"></rect>	<rect x="283" y="126" class="st5" width="71.4" height="3.3"></rect>	<rect x="283" y="132.7" class="st5" width="60.8" height="3.3"></rect></g><g id="Character">	<path class="st0" d="M296.9,440.5c0,0-29,8.3-33,9.8c-3.7,1.3-13.7,4.8-21.2,3.7c-0.7-0.1-1.5-0.3-2.1-0.5c-7.6-2.3-11-4.4-12-9.1  c-1-4.8,2.8-8.3,6.4-10.5c3.6-2.3,23.4-4.6,23.4-4.6l4.8,1.4h0L296.9,440.5z"></path>	<path class="st11" d="M242.7,453.9c-0.7-0.1-1.5-0.3-2.1-0.5c-7.6-2.3-11-4.4-12-9.1c-1-4.8,2.8-8.3,6.4-10.5  c3.6-2.3,23.4-4.6,23.4-4.6l4.8,1.4c-4.3,2-20.4,3.1-23.9,5.1c-3.5,2-5.2,5.8-3.1,11C237.2,449.4,240.1,452,242.7,453.9z"></path>	<path class="st12" d="M292.5,441.6c0,0-21.8,5.6-30.4,9.3c-8.6,3.6-25.1,5.2-31-2.3c-5.9-7.4-0.7-13.9,5.2-15.3s17.7-3.7,24.2-2.8"></path>	<path class="st12" d="M243.1,453.5c0,0-11.1-6.1-7.4-14.6c2.7-6.3,17.5-4.9,24.8-8.4"></path>	<path class="st0" d="M385.2,455.3c-0.3,3-1.3,5.8-4.3,7.6c-2,1.2-4.8,1.9-8.9,1.8c-10.2-0.1-29.3-7.4-29.3-7.4l-17.9-9.9l9.3-14.7  l2.5-4l6.6,1.5c0,0,5.4,3.1,10.9,5.5c5.5,2.5,18.8,3,23.5,6.8C382.3,446.2,385.7,450.3,385.2,455.3z"></path>	<path class="st11" d="M385.2,455.3c-0.3,3-1.3,5.8-4.3,7.6c0.6-2.3,1-5.5-0.5-8.9c-2-4.5-8.5-8.4-17.1-9.1  c-8.5-0.7-15.1-4.7-18.5-6.5c-2.7-1.4-8.3-4.4-10.7-5.7l2.5-4l6.6,1.5c0,0,5.4,3.1,10.9,5.5c5.5,2.5,18.8,3,23.5,6.8  C382.3,446.2,385.7,450.3,385.2,455.3z"></path>	<path class="st12" d="M328.7,450.2c12.7,7.3,27.3,12.6,41.9,14.3c3.3,0.4,7,0.4,9.2-2c1.2-1.4,1.7-3.3,1.5-5.1  c-0.4-4.6-4.3-8.2-8.5-10.1c-4.2-1.8-8.9-2.3-13.4-3.3c-4.5-1-8.8-2.6-12.9-4.7c-3.2-1.7-6.4-3.7-9.9-4.5c-3.6-0.8-7.8,0.2-9.7,3.3  "></path>	<path class="st12" d="M378.6,463.7c3.3-1.7,6-4.8,6.5-8.5c0.6-4.3-1.8-8.7-5.3-11.4c-3.5-2.7-7.8-3.9-12.1-4.8  c-4.3-0.9-8.7-1.5-12.8-3.1c-6.3-2.5-12.5-7.3-19-5.6"></path>	<path class="st0" d="M348.9,295.3l-30.3-11.5l-0.4-0.1c0,0,0.1-0.8,0.2-2c0.2-2.4,0.3-6.4-0.8-7.7c-1.7-2-6.5-0.3-11.1-2.5  c-4.7-2.1-13.3,1.7-13.3,1.7s-6.2-1.1-9,3.4c-1.4,3.6-0.9,9-0.9,9s-0.2,0.1-0.6,0.2c-3.6,1.3-23.2,8.7-27.4,11.7  c-4.6,3.3-9.7,36.6-11.3,46.4c-1.6,9.8-4.5,18.6-3.1,22c1.5,3.4,22.6,19.6,34.7,23.8c12.1,4.2,55.2,3,55.2,3s0.7-0.2,2-0.6  c7.3-2.3,33.1-12,46.8-34.7C379.6,357.4,366.3,313.9,348.9,295.3z M267.1,351.4c-2.2,1.6-1,7.7-1,7.7l-3.8-3.3l9.5-23.4l4.1,18  C275.8,350.3,269.3,349.8,267.1,351.4z M343.2,366.3c-1,0.5,3-10.7,1.1-13.3c-1.9-2.6-7.7-2.3-7.7-2.3l0.5-3.1  c0.1-0.3,3.4-17.6,3.4-17.6l1.1-1.4c0,0,11.8,20.2,13.9,27.3C355.5,356,342.7,366.3,343.2,366.3z"></path>	<path class="st11" d="M291.7,222.3l-15.6,16.6c0,0-2.2,1.9-1.3,6.7c0.9,4.8,2.9,9,4.4,9.3c1.5,0.3,3.6,0.3,3.6,0.3  s3.4,7.3,5.7,10.1c0,0,0.8,11.2,0.4,14.3c0,0,5.6,4.9,10.9,5.5c5.3,0.6,13.5-7.5,13.5-7.5l2-9.9c0,0,4.8-7.3,5.1-9.2  c0.3-1.9,2.5-1.4,3.6-2.4c1.1-1,3.6-5.2,4-9.3c0.4-4,0.4-8.7-4.3-7.3c-4.1-1.1-1.5-9.7-1.5-9.7l-7.1-6.3L291.7,222.3z"></path>	<path class="st3" d="M318.6,283.7c-0.2,0.6-0.5,1.2-0.8,1.8c-2.6,4.9-13.8,14.1-13.8,14.1l-3.4-10.4l-1.9,10.4  c-3.8-1.6-15.2-11.5-15.2-11.5s-0.4-0.9-0.9-2.4c0.4-0.1,0.6-0.2,0.6-0.2s-0.5-5.4,0.9-9c2.7-4.5,9-3.4,9-3.4s8.6-3.8,13.3-1.7  c4.7,2.1,9.5,0.5,11.1,2.5c1.7,2,0.7,9.7,0.7,9.7L318.6,283.7z"></path>	<path class="st9" d="M348.9,295.3l-30.3-11.5l-0.4-0.1c0,0,0.1-0.8,0.2-2l-0.6,3.9l-4.5,6.1c0,0,7.6,2.7,14,6.2  c4.5,2.4,7,7.2,6.4,12.2l-5.6,47.7l-2.3,27.1l6.9,7.2c7.3-2.3,33.1-12,46.8-34.7C379.6,357.4,366.3,313.9,348.9,295.3z   M343.2,366.3c-1,0.5,3-10.7,1.1-13.3c-1.9-2.6-7.7-2.3-7.7-2.3l0.5-3.1c0.1-0.3,3.4-17.6,3.4-17.6l1.1-1.4  c0,0,11.8,20.2,13.9,27.3C355.5,356,342.7,366.3,343.2,366.3z"></path>	<path class="st9" d="M277.9,353l-4.7-15.7c0,0-8.4-28.8-14.2-35.9l1.5,20.3c0,0-5,24.2-9.6,31.4c-4.6,7.2-5.6,9,0,9  c5.6,0,19.2,10.8,19.2,10.8l-1-9L277.9,353z M266,359.1l-3.8-3.3l9.5-23.4l4.1,18c0,0-6.5-0.5-8.7,1.1  C264.8,353,266,359.1,266,359.1z"></path>	<path class="st12" d="M288.5,265.3c0,0,0.9,8.5,0,12.4"></path>	<path class="st12" d="M314.1,276.5c0,0,0-4.1,0.9-8.1"></path>	<path class="st12" d="M316.4,228.6c0,0,5.1,6.5,4.9,11.3c-0.3,4.9-0.7,10.7-0.5,16.3c0.1,5.7-9.1,17.5-13.8,18.6  c-4.7,1.1-8.8,1.3-11.9-1.7c-3-3-6.1-7.2-10-12.6c-4-5.4-3-17.2-3-17.2"></path>	<path class="st12" d="M304,247.7c-0.3,1.8-0.4,3.6-0.4,5.4c0,1.5,0.3,3.1,1.3,4.2c0.6,0.6,1.4,1,1.5,1.8c0.1,0.7-0.4,1.4-1.1,1.7  c-0.6,0.4-1.3,0.6-1.9,1.1"></path>	<path class="st12" d="M295.9,262.6c0,0,0.6,3.8,5.7,4.6"></path>	<path class="st5" d="M296.4,250.6c0,1.1-0.5,2-1.1,2c-0.6,0-1.1-0.9-1.1-2c0-1.1,0.5-2,1.1-2C295.9,248.6,296.4,249.5,296.4,250.6z  "></path>	<path class="st5" d="M311.7,251.1c0,1.1-0.5,2-1.1,2c-0.6,0-1.1-0.9-1.1-2c0-1.1,0.5-2,1.1-2C311.2,249.1,311.7,250,311.7,251.1z"></path>	<path class="st13" d="M308.6,246.3c0,0,5-5,9.2,0.6"></path>	<path class="st13" d="M298.1,246.4c0,0-3.2-3.5-8.1,0"></path>	<path class="st5" d="M288.9,269.9c0,0,3,8.4,9.9,10.8c6.8,2.4,15.9-10,15.9-10l-0.5-1.6c0,0-5.9,7.7-12.5,6.4  c-6.6-1.3-13.1-10.2-13.1-10.2L288.9,269.9z"></path>	<path class="st12" d="M282.8,254.8c0,0-4.1,1.4-5.1-1.7c-1.1-3.2-4.8-11.5-1.5-14.3c3.2-2.8,5.8,3.7,5.8,3.7"></path>	<path class="st12" d="M320.7,256.6c0,0,3.8,0.8,4.9-2.4c1.1-3.2,4.8-11.5,1.5-14.3c-3.2-2.8-5.8,3.7-5.8,3.7"></path>	<path class="st5" d="M281.9,250.6c1.1-0.1,3-1.1,3.6-2.1c0.6-1,0.8-2.1,1-3.2c0.4-2.1,0.6-4.3,0.6-6.4c0-0.8,0-1.7,0.2-2.5  c0.3-0.8,0.8-1.6,1.4-2.2c1.4-1.7,3.1-3.1,4.5-4.8c1.3-1.7,2.3-3.9,2-6c0,0,9.2,8.4,22.5,5.8c7.1-1.4,14-7.7,13.2-15.5  c-0.3-2.8-2.4-4.8-5-5.5c-3.5-0.9-6.7,1-9.9,2.2c-5.8,2.2-11.5-1.6-17.4-2.2c-5-0.5-11.2,0.1-13.8,5.1c0,0-9.1,1.1-13,8.5  c-4,7.4,3.6,17.7,3.6,17.7s3-3.7,6.9,3.8L281.9,250.6z"></path>	<path class="st5" d="M317,226.7c0,0-2.3,12.2,3.8,18.1c0,0,1.3-3.7,2.7-4.6c0,0,3.4-6.4-1.1-13.5C317.9,219.6,317,226.7,317,226.7z  "></path>	<path class="st14" d="M328.1,212.8c-0.9,3.4-3.7,6-7,7.3c-8.5,3.5-16.7-0.4-25.2-1.1c-6.9-0.6-14.6,5.6-15.1,12.8"></path>	<path class="st14" d="M275.6,229.8c0.1-5.6,3.8-11,9-13.1"></path>	<path class="st12" d="M286.5,276.5c0,0,5.6,6.2,13.2,9c0,0,10.2-2.9,15.3-10"></path>	<ellipse transform="matrix(0.909 -0.4169 0.4169 0.909 -77.7934 145.0154)" class="st12" cx="293.1" cy="250.6" rx="9" ry="9"></ellipse>	<ellipse transform="matrix(0.9925 -0.1219 0.1219 0.9925 -28.2199 40.0562)" class="st12" cx="313.2" cy="250.6" rx="9" ry="9"></ellipse>	<path class="st12" d="M288.5,273.2c0,0-2.7,0.6-4.3,3.4c-1.6,2.8-0.6,11.6-0.6,11.6s8.2,8.1,15.2,11.5l2.1-11.6l3.2,11.6  c0,0,10.8-7.7,13.8-14.1c0,0,1-7.5,0-10s-3.2-2.4-3.2-2.4"></path>	<path class="st12" d="M275.6,350.7c0,0-3.2-21.5-7.5-30.3"></path>	<path class="st12" d="M258.9,301.4c0,0,4.1,5.7,6.6,11.1"></path>	<path class="st12" d="M343.2,317.4c1.1-4.3,2.3-8,3.5-10.5"></path>	<path class="st12" d="M336.6,350.7c0,0,2.3-14.7,5.1-26.9"></path>	<path class="st12" d="M340.5,330c2.2-2.9,5.4-5.1,8.9-6.1"></path>	<path class="st12" d="M318.2,283.6c0,0,18.6,7.4,30.7,11.7c0,0,14.8,13.9,30.7,62.1c0,0-14.5,24.5-42.2,32.3"></path>	<path class="st12" d="M342.2,367.1l13.4-11.2c0,0,7.1-5.4,14.4-1.7"></path>	<path class="st12" d="M341.7,328.7c0,0,11.1,16.3,13.9,27.3"></path>	<path class="st12" d="M266.2,359.7l-3.9-3.7c0,0-5.8-1-12.4,3.4"></path>	<path class="st12" d="M262.2,356c0,0,4.9-16,9.6-24.2"></path>	<path class="st12" d="M283.2,285.5c0,0-26.8,10.1-29.4,13c-2.6,2.9-12.6,59.2-12.9,65.6c-0.2,5.8,20.6,18.7,31,24.1"></path>	<path class="st4" d="M380.3,276.5h-30.6c-3.6,0-6.5-2.9-6.5-6.5v-17.9c0-3.6,2.9-6.5,6.5-6.5h30.6c3.6,0,6.5,2.9,6.5,6.5V270  C386.8,273.6,383.9,276.5,380.3,276.5z"></path>	<polyline class="st12" points="357.3,254.8 348.9,260.1 356.7,267  "></polyline>	<polyline class="st12" points="372.6,267.5 380.1,261.1 371.4,255.4  "></polyline>	<line class="st12" x1="361.4" y1="271.5" x2="367.6" y2="252.1"></line>	<path class="st5" d="M303.3,304.6c0,1-0.8,1.8-1.8,1.8c-1,0-1.8-0.8-1.8-1.8c0-1,0.8-1.8,1.8-1.8  C302.5,302.8,303.3,303.6,303.3,304.6z"></path>	<path class="st5" d="M334.3,398.8h-61c-0.8,0-1.4-0.6-1.4-1.4l0,0c0-0.8,0.6-1.4,1.4-1.4h61c0.8,0,1.4,0.6,1.4,1.4l0,0  C335.8,398.1,335.1,398.8,334.3,398.8z"></path>	<path class="st4" d="M336.5,394l8.2-38.4c0.5-2.5-1.4-4.9-4-4.9h-71.3c-2.6,0-4.5,2.4-4,4.9l7.3,37.1c0.4,1.9,2,3.2,3.9,3.3  l55.8,1.3C334.3,397.3,336,396,336.5,394z"></path>	<path class="st5" d="M310.4,372.8c0,3.1-2.5,5.7-5.7,5.7s-5.7-2.5-5.7-5.7c0-3.1,2.5-5.7,5.7-5.7S310.4,369.7,310.4,372.8z"></path>	<line class="st12" x1="321.6" y1="354.3" x2="330.1" y2="354.3"></line>	<line class="st12" x1="281.2" y1="354.3" x2="313.3" y2="354.3"></line>	<path class="st5" d="M336.6,434.8l-6.5,17.1c0,0-16.6-4.2-37.8-8.5c-22.2-4.6-45.4-10.4-57.4-31.5c-1.5-2.6-2.4-5.6-1.8-8.5  c1.7-7.3,11.2-9.3,17.5-10c3.9-0.5,7.9-0.6,11.8-0.7c2,0,8.7-1.1,10.3,0.1c0,0,4.2,3.1,7.7,4.6c3.5,1.5,55.4-1.4,55.4-1.4  s1.5-3.3,1.6-6.2c8.1-4.1,27-7.6,35-6.1c12.5,2.4,19.8,9.7,18.5,17.4C389.4,408.7,361.8,429.2,336.6,434.8z"></path>	<path class="st15" d="M336.6,434.8c0,0-15.8-4.2-28.6-12.9c-12.9-8.7-22.9-18.8-40.9-16.7"></path>	<path class="st15" d="M305,419.8c8.1-2.3,14.1-7.6,20.6-12.7c6.9-5.4,14.2-10.5,22.1-14.5"></path>	<line class="st12" x1="302.1" y1="252.1" x2="304.5" y2="252.1"></line></g></svg>